ffmpeg version 3.4.8-0ubuntu0.2 Copyright (c) 2000-2020 the FFmpeg developers
  built with gcc 7 (Ubuntu 7.5.0-3ubuntu1~18.04)
  configuration: --prefix=/usr --extra-version=0ubuntu0.2 --toolchain=hardened --libdir=/usr/lib/x86_64-linux-gnu --incdir=/usr/include/x86_64-linux-gnu --enable-gpl --disable-stripping --enable-avresample --enable-avisynth --enable-gnutls --enable-ladspa --enable-libass --enable-libbluray --enable-libbs2b --enable-libcaca --enable-libcdio --enable-libflite --enable-libfontconfig --enable-libfreetype --enable-libfribidi --enable-libgme --enable-libgsm --enable-libmp3lame --enable-libmysofa --enable-libopenjpeg --enable-libopenmpt --enable-libopus --enable-libpulse --enable-librubberband --enable-librsvg --enable-libshine --enable-libsnappy --enable-libsoxr --enable-libspeex --enable-libssh --enable-libtheora --enable-libtwolame --enable-libvorbis --enable-libvpx --enable-libwavpack --enable-libwebp --enable-libx265 --enable-libxml2 --enable-libxvid --enable-libzmq --enable-libzvbi --enable-omx --enable-openal --enable-opengl --enable-sdl2 --enable-libdc1394 --enable-libdrm --enable-libiec61883 --enable-chromaprint --enable-frei0r --enable-libopencv --enable-libx264 --enable-shared
  libavutil      55. 78.100 / 55. 78.100
  libavcodec     57.107.100 / 57.107.100
  libavformat    57. 83.100 / 57. 83.100
  libavdevice    57. 10.100 / 57. 10.100
  libavfilter     6.107.100 /  6.107.100
  libavresample   3.  7.  0 /  3.  7.  0
  libswscale      4.  8.100 /  4.  8.100
  libswresample   2.  9.100 /  2.  9.100
  libpostproc    54.  7.100 / 54.  7.100
[rawvideo @ 0x5567c2d88a20] Estimating duration from bitrate, this may be inaccurate
Input #0, rawvideo, from '../../SVC-Encoder-20220109T061506Z-001/SVC-Encoder/Dataset/RollerCoaster/ERP_8x8/tile_yuv/Tile_60_480x240.yuv':
  Duration: 00:00:10.00, start: 0.000000, bitrate: 41472 kb/s
    Stream #0:0: Video: rawvideo (I420 / 0x30323449), yuv420p, 480x240, 41472 kb/s, 30 tbr, 30 tbn, 30 tbc
Stream mapping:
  Stream #0:0 -> #0:0 (rawvideo (native) -> h264 (libx264))
Press [q] to stop, [?] for help
[libx264 @ 0x5567c2d95c60] using cpu capabilities: MMX2 SSE2Fast LZCNT SSSE3 SSE4.2 AVX
[libx264 @ 0x5567c2d95c60] profile High, level 2.1
Output #0, rawvideo, to 'RollerCoaster_Tile_60_480x240_x264_QP_32.h264':
  Metadata:
    encoder         : Lavf57.83.100
    Stream #0:0: Video: h264 (libx264), yuv420p, 480x240, q=-1--1, 30 fps, 30 tbn, 30 tbc
    Metadata:
      encoder         : Lavc57.107.100 libx264
    Side data:
      cpb: bitrate max/min/avg: 0/0/0 buffer size: 0 vbv_delay: -1
frame=  246 fps=0.0 q=38.0 PSNR=Y:nan U:nan V:nan *:nan size=      43kB time=00:00:06.76 bitrate=  51.7kbits/s speed=13.5x    frame=  300 fps=0.0 q=38.0 LPSNR=Y:inf U:inf V:inf *:inf size=      63kB time=00:00:09.93 bitrate=  51.8kbits/s speed=  15x    
video:63kB audio:0kB subtitle:0kB other streams:0kB global headers:0kB muxing overhead: 0.000000%
[libx264 @ 0x5567c2d95c60] frame I:2     Avg QP:30.53  size:  4018  PSNR Mean Y:42.60 U:47.91 V:42.18 Avg:43.06 Global:43.05
[libx264 @ 0x5567c2d95c60] frame P:77    Avg QP:31.03  size:   371  PSNR Mean Y:41.90 U:47.45 V:43.36 Avg:42.69 Global:42.67
[libx264 @ 0x5567c2d95c60] frame B:221   Avg QP:37.39  size:   126  PSNR Mean Y:41.55 U:47.47 V:43.25 Avg:42.40 Global:42.38
[libx264 @ 0x5567c2d95c60] consecutive B-frames:  0.7%  2.7%  2.0% 94.7%
[libx264 @ 0x5567c2d95c60] mb I  I16..4: 11.6% 63.0% 25.4%
[libx264 @ 0x5567c2d95c60] mb P  I16..4:  0.5%  0.3%  0.0%  P16..4: 30.2%  4.2%  0.3%  0.0%  0.0%    skip:64.4%
[libx264 @ 0x5567c2d95c60] mb B  I16..4:  0.0%  0.0%  0.0%  B16..8: 23.3%  0.5%  0.0%  direct: 0.0%  skip:76.2%  L0:46.4% L1:53.3% BI: 0.3%
[libx264 @ 0x5567c2d95c60] 8x8 transform intra:56.2% inter:93.7%
[libx264 @ 0x5567c2d95c60] coded y,uvDC,uvAC intra: 25.0% 44.6% 24.6% inter: 0.9% 1.2% 0.0%
[libx264 @ 0x5567c2d95c60] i16 v,h,dc,p: 25% 60% 11%  4%
[libx264 @ 0x5567c2d95c60] i8 v,h,dc,ddl,ddr,vr,hd,vl,hu:  3% 29% 61%  1%  1%  0%  3%  1%  2%
[libx264 @ 0x5567c2d95c60] i4 v,h,dc,ddl,ddr,vr,hd,vl,hu:  8% 65% 14%  1%  1%  0%  5%  0%  5%
[libx264 @ 0x5567c2d95c60] i8c dc,h,v,p: 51% 43%  2%  4%
[libx264 @ 0x5567c2d95c60] Weighted P-Frames: Y:2.6% UV:0.0%
[libx264 @ 0x5567c2d95c60] ref P L0: 49.8% 13.2% 27.7%  9.2%  0.1%
[libx264 @ 0x5567c2d95c60] ref B L0: 62.5% 30.7%  6.8%
[libx264 @ 0x5567c2d95c60] ref B L1: 78.2% 21.8%
[libx264 @ 0x5567c2d95c60] PSNR Mean Y:41.650 U:47.469 V:43.268 Avg:42.476 Global:42.458 kb/s:51.45
